<svg id="Layer_1" data-name="Layer 1" xmlns="http://www.w3.org/2000/svg" viewBox="0 0 586.02 271.99"><defs><style>.cls-1{font-size:127.01px;font-family:MicrosoftSansSerif, Microsoft Sans Serif;}.cls-1,.cls-3{fill:#4077bc;}.cls-2{fill:#158d44;}</style></defs><title>readeasy</title><text class="cls-1" transform="translate(0 239.37)">ReadEasy</text><rect class="cls-2" x="11.02" y="254.21" width="502.19" height="9.95"/><path class="cls-3" d="M492.1,88.83c-3.07-7.73-9.18-13.51-18.25-17.23a52.41,52.41,0,0,0-16.27-2.83c-.53,0-1,.06-1.54.08A69.74,69.74,0,0,0,407,48.77c-21.1,0-43,9.28-65,27.57a5.39,5.39,0,0,0,3.43,9.52h10.46c-8,6.81-19.24,20.73-17.41,44.11a2.72,2.72,0,0,0,4.64,1.71l16.21-16.21c1.7,16.36,9.37,60.23,42.78,63.62h.27a2.73,2.73,0,0,0,1.9-4.68c-.08-.08-8-8.26-8.1-31.82,6.05,6.53,16.91,17,26,18.95a2.76,2.76,0,0,0,2.76-1,2.72,2.72,0,0,0,.21-2.93c-.08-.15-7.79-14.62-.22-29,2.17-1.92,13.89-12.15,22.73-17.16a83.27,83.27,0,0,0,14-1.39,53.12,53.12,0,0,1,9.83-1.08c8.46,0,12.72,3.1,13.81,10a2.73,2.73,0,0,0,2.33,2.28l.37,0a2.73,2.73,0,0,0,2.48-1.6C490.79,119,497.82,103.22,492.1,88.83ZM401.69,77.91a16.1,16.1,0,0,1,24.13-14l.06,0,.17.12a16.61,16.61,0,0,1,1.42,1l.28.21a16.21,16.21,0,0,1,2.8,2.82l.14.19a16.12,16.12,0,0,1,1,1.57l0,.08a16.07,16.07,0,0,1,1.55,3.69l.08.33c.13.52.24,1,.32,1.58,0,.15.05.3.07.45a16.05,16.05,0,0,1,.13,2,16.65,16.65,0,0,1-.13,2c0,.15,0,.3-.07.45q-.12.8-.32,1.58l-.08.33a16.14,16.14,0,0,1-1.55,3.7l0,.08a16.15,16.15,0,0,1-1.05,1.57l-.13.18a16.32,16.32,0,0,1-2.82,2.83l-.23.17a16.82,16.82,0,0,1-1.52,1l-.11.07h0a16.1,16.1,0,0,1-24.15-14Zm86.06,32.5c-2.73-3.9-7.62-6.93-16.25-6.93a58.55,58.55,0,0,0-10.85,1.17,77.81,77.81,0,0,1-14.52,1.3h-.05c-2.92,0-5.88-.15-8.88-.44h0c-1.39-.14-2.79-.31-4.2-.51l-.36,0q-2.25-.32-4.5-.75l-1.81-.33-.82-.15a47.19,47.19,0,0,0,6-3.41C444.15,91.83,447.29,80.2,448,76A18.87,18.87,0,0,1,451,75l.62-.15a25.15,25.15,0,0,1,3.39-.52h0c.83-.07,1.67-.11,2.55-.11a47.91,47.91,0,0,1,14.3,2.45h0c7.55,3.1,12.65,7.86,15.15,14.14C489.76,97.65,489,105.13,487.75,110.42Z" transform="translate(-131.68 -48.77)"/><path class="cls-3" d="M459.24,78.49l-5.45,5.45a2.72,2.72,0,1,0,3.85,3.85l5.45-5.45a2.72,2.72,0,0,0-3.85-3.85Z" transform="translate(-131.68 -48.77)"/><path class="cls-3" d="M419.08,88.46a15.92,15.92,0,0,1,0-21.09,10.31,10.31,0,0,0-1.27-.13,10.67,10.67,0,0,0,0,21.35A9.81,9.81,0,0,0,419.08,88.46Z" transform="translate(-131.68 -48.77)"/><path class="cls-3" d="M424.79,85.92a10.73,10.73,0,0,0,1.09-1.11c.15-.18.3-.35.45-.54a10.52,10.52,0,0,0,.86-1.37c.1-.18.21-.36.3-.55a10.69,10.69,0,0,0,.58-1.66c0-.17.11-.32.15-.49a10.19,10.19,0,0,0,0-4.59c0-.17-.11-.32-.15-.48a10.84,10.84,0,0,0-.59-1.67c-.08-.19-.2-.36-.29-.54a11,11,0,0,0-.86-1.38c-.14-.19-.29-.36-.44-.54a10.78,10.78,0,0,0-1.09-1.11l-.31-.26a10.63,10.63,0,0,0,0,16.53Z" transform="translate(-131.68 -48.77)"/></svg>